<svg width="42" height="42" viewBox="0 0 42 42" fill="none" xmlns="http://www.w3.org/2000/svg">
<path d="M40.5854 37.3313L32.7938 29.5625C35.3077 26.3598 36.6717 22.4048 36.6667 18.3333C36.6667 14.7074 35.5914 11.1628 33.577 8.14789C31.5625 5.13299 28.6992 2.78316 25.3492 1.39555C21.9992 0.00794351 18.313 -0.355118 14.7567 0.352278C11.2004 1.05967 7.93368 2.80575 5.36972 5.36972C2.80575 7.93368 1.05967 11.2004 0.352278 14.7567C-0.355118 18.313 0.00794351 21.9992 1.39555 25.3492C2.78316 28.6992 5.13299 31.5625 8.14789 33.577C11.1628 35.5914 14.7074 36.6667 18.3333 36.6667C22.4048 36.6717 26.3598 35.3077 29.5625 32.7938L37.3313 40.5854C37.5443 40.8002 37.7978 40.9707 38.077 41.0871C38.3563 41.2034 38.6558 41.2633 38.9583 41.2633C39.2609 41.2633 39.5604 41.2034 39.8397 41.0871C40.1189 40.9707 40.3724 40.8002 40.5854 40.5854C40.8002 40.3724 40.9707 40.1189 41.0871 39.8397C41.2034 39.5604 41.2633 39.2609 41.2633 38.9583C41.2633 38.6558 41.2034 38.3563 41.0871 38.077C40.9707 37.7978 40.8002 37.5443 40.5854 37.3313ZM4.58334 18.3333C4.58334 15.6139 5.38977 12.9554 6.90063 10.6943C8.4115 8.43308 10.559 6.6707 13.0714 5.63C15.5839 4.58929 18.3486 4.317 21.0158 4.84754C23.6831 5.37809 26.1331 6.68765 28.0561 8.61062C29.979 10.5336 31.2886 12.9836 31.8191 15.6509C32.3497 18.3181 32.0774 21.0828 31.0367 23.5952C29.996 26.1077 28.2336 28.2552 25.9724 29.766C23.7113 31.2769 21.0528 32.0833 18.3333 32.0833C14.6866 32.0833 11.1892 30.6347 8.61062 28.0561C6.032 25.4774 4.58334 21.9801 4.58334 18.3333Z" fill="#DEA600"/>
</svg>
