<svg width="55" height="55" viewBox="0 0 55 55" fill="none" xmlns="http://www.w3.org/2000/svg">
<circle cx="28" cy="27" r="23" fill="#DEA600"/>
<path d="M27.5 0.00012207C12.32 0.00012207 0 12.3201 0 27.5001C0 42.6801 12.32 55.0001 27.5 55.0001C42.68 55.0001 55 42.6801 55 27.5001C55 12.3201 42.68 0.00012207 27.5 0.00012207ZM27.5 8.25012C32.065 8.25012 35.75 11.9351 35.75 16.5001C35.75 21.0651 32.065 24.7501 27.5 24.7501C22.935 24.7501 19.25 21.0651 19.25 16.5001C19.25 11.9351 22.935 8.25012 27.5 8.25012ZM27.5 47.3001C24.2326 47.3001 21.016 46.4916 18.137 44.9465C15.258 43.4014 12.8061 41.1679 11 38.4451C11.0825 32.9726 22 29.9751 27.5 29.9751C32.9725 29.9751 43.9175 32.9726 44 38.4451C42.1939 41.1679 39.742 43.4014 36.863 44.9465C33.984 46.4916 30.7674 47.3001 27.5 47.3001Z" fill="#FFEFB6"/>
</svg>
