<svg width="19" height="33" viewBox="0 0 19 33" fill="none" xmlns="http://www.w3.org/2000/svg">
<path d="M9.5 0.5C4.32125 0.5 0.125 4.69625 0.125 9.875C0.125 10.3723 0.322544 10.8492 0.674175 11.2008C1.02581 11.5525 1.50272 11.75 2 11.75C2.49728 11.75 2.97419 11.5525 3.32582 11.2008C3.67746 10.8492 3.875 10.3723 3.875 9.875C3.875 6.76625 6.39125 4.25 9.5 4.25C12.6087 4.25 15.125 6.76625 15.125 9.875C15.125 11.405 14.7519 12.3012 14.3037 12.9294C13.8125 13.6137 13.1319 14.1256 12.1887 14.7762L11.9712 14.9225C11.1331 15.4962 10.0531 16.2331 9.21687 17.2606C8.22875 18.4756 7.625 20.0112 7.625 22.0625V23C7.625 23.4973 7.82254 23.9742 8.17417 24.3258C8.5258 24.6775 9.00272 24.875 9.5 24.875C9.99728 24.875 10.4742 24.6775 10.8258 24.3258C11.1775 23.9742 11.375 23.4973 11.375 23V22.0625C11.375 20.8325 11.7087 20.1425 12.125 19.6269C12.6069 19.0381 13.2556 18.5919 14.2137 17.9337L14.3131 17.8644C15.2431 17.2269 16.4375 16.3906 17.3506 15.1119C18.3125 13.7769 18.875 12.0931 18.875 9.875C18.875 4.69625 14.6787 0.5 9.5 0.5Z" fill="#DEA600"/>
<path d="M9.5 32.8438C10.1216 32.8438 10.7177 32.5968 11.1573 32.1573C11.5968 31.7177 11.8438 31.1216 11.8438 30.5C11.8438 29.8784 11.5968 29.2823 11.1573 28.8427C10.7177 28.4032 10.1216 28.1562 9.5 28.1562C8.8784 28.1562 8.28226 28.4032 7.84272 28.8427C7.40318 29.2823 7.15625 29.8784 7.15625 30.5C7.15625 31.1216 7.40318 31.7177 7.84272 32.1573C8.28226 32.5968 8.8784 32.8438 9.5 32.8438Z" fill="#DEA600"/>
</svg>
