<svg width="55" height="55" viewBox="0 0 55 55" fill="none" xmlns="http://www.w3.org/2000/svg">
<rect width="55" height="55" rx="27.5" fill="#FFEFB6"/>
<path d="M39.2917 15.7216H34.8622C34.7735 15.7216 34.6884 15.7568 34.6257 15.8195C34.5629 15.8823 34.5277 15.9673 34.5277 16.0561C34.5277 16.1131 34.5457 16.1641 34.5705 16.2106V18.7591C34.5706 18.8525 34.5522 18.945 34.5165 19.0313C34.4808 19.1176 34.4285 19.196 34.3624 19.262C34.2964 19.3281 34.218 19.3804 34.1317 19.4161C34.0454 19.4518 33.9529 19.4702 33.8595 19.4701H32.481C32.3943 19.4701 32.3085 19.453 32.2284 19.4198C32.1483 19.3867 32.0756 19.338 32.0143 19.2767C31.953 19.2155 31.9044 19.1427 31.8712 19.0626C31.838 18.9826 31.821 18.8967 31.821 18.8101V16.2518C31.8652 16.196 31.8899 16.1273 31.8915 16.0561C31.8916 16.0121 31.883 15.9686 31.8662 15.9279C31.8494 15.8873 31.8248 15.8504 31.7937 15.8193C31.7626 15.7882 31.7257 15.7636 31.6851 15.7468C31.6445 15.73 31.6009 15.7215 31.557 15.7216H22.6282C22.5395 15.7216 22.4544 15.7568 22.3917 15.8195C22.3289 15.8823 22.2937 15.9673 22.2937 16.0561C22.2937 16.1078 22.308 16.1551 22.329 16.1993V18.7771C22.329 18.8682 22.311 18.9584 22.2761 19.0425C22.2413 19.1267 22.1902 19.2032 22.1258 19.2676C22.0613 19.332 21.9849 19.3831 21.9007 19.418C21.8165 19.4529 21.7263 19.4708 21.6352 19.4708H20.4112C20.2254 19.4708 20.0472 19.397 19.9159 19.2656C19.7845 19.1343 19.7107 18.9561 19.7107 18.7703V16.2181C19.7405 16.1692 19.7568 16.1133 19.758 16.0561C19.7581 16.0121 19.7495 15.9686 19.7327 15.9279C19.7159 15.8873 19.6913 15.8504 19.6602 15.8193C19.6291 15.7882 19.5922 15.7636 19.5516 15.7468C19.511 15.73 19.4674 15.7215 19.4235 15.7216H14.7562C14.5591 15.7218 14.3701 15.8001 14.2306 15.9394C14.0911 16.0787 14.0126 16.2677 14.0122 16.4648V38.6153C14.0122 39.0263 14.346 39.3601 14.7562 39.3601H39.2917C39.489 39.3597 39.678 39.281 39.8174 39.1414C39.9567 39.0018 40.035 38.8126 40.035 38.6153V16.4648C40.0346 16.2678 39.9561 16.079 39.8168 15.9397C39.6775 15.8004 39.4887 15.722 39.2917 15.7216ZM39.2917 38.6911H14.7562C14.7463 38.6911 14.7365 38.6891 14.7273 38.6853C14.7182 38.6815 14.7099 38.6759 14.7029 38.6688C14.6959 38.6618 14.6904 38.6534 14.6867 38.6442C14.683 38.6351 14.6811 38.6252 14.6812 38.6153V21.9106H39.366V38.6146C39.3662 38.6245 39.3644 38.6343 39.3608 38.6435C39.3571 38.6528 39.3517 38.6612 39.3448 38.6683C39.3379 38.6754 39.3296 38.6811 39.3205 38.685C39.3114 38.6889 39.3016 38.691 39.2917 38.6911Z" fill="#DEA600"/>
<path d="M21.1101 18.708C21.2946 18.708 21.4446 18.558 21.4446 18.3735V13.875C21.4446 13.8311 21.436 13.7876 21.4192 13.747C21.4024 13.7064 21.3777 13.6696 21.3467 13.6385C21.3156 13.6074 21.2787 13.5828 21.2381 13.566C21.1976 13.5492 21.1541 13.5405 21.1101 13.5405C21.0662 13.5405 21.0227 13.5492 20.9821 13.566C20.9415 13.5828 20.9047 13.6074 20.8736 13.6385C20.8425 13.6696 20.8179 13.7064 20.8011 13.747C20.7843 13.7876 20.7756 13.8311 20.7756 13.875V18.3743C20.7756 18.5588 20.9256 18.708 21.1101 18.708Z" fill="#DEA600"/>
<path d="M33.2256 18.708C33.4101 18.708 33.5601 18.558 33.5601 18.3735V13.875C33.5601 13.7863 33.5249 13.7012 33.4621 13.6385C33.3994 13.5758 33.3143 13.5405 33.2256 13.5405C33.1369 13.5405 33.0518 13.5758 32.9891 13.6385C32.9264 13.7012 32.8911 13.7863 32.8911 13.875V18.3743C32.8911 18.5588 33.0404 18.708 33.2256 18.708Z" fill="#DEA600"/>
<path d="M19.3813 26.9708C20.3995 26.9708 21.2248 26.1455 21.2248 25.1273C21.2248 24.1092 20.3995 23.2838 19.3813 23.2838C18.3632 23.2838 17.5378 24.1092 17.5378 25.1273C17.5378 26.1455 18.3632 26.9708 19.3813 26.9708Z" fill="#DEA600"/>
<path d="M24.6794 26.9708C25.6976 26.9708 26.5229 26.1455 26.5229 25.1273C26.5229 24.1092 25.6976 23.2838 24.6794 23.2838C23.6613 23.2838 22.8359 24.1092 22.8359 25.1273C22.8359 26.1455 23.6613 26.9708 24.6794 26.9708Z" fill="#DEA600"/>
<path d="M29.9768 26.9708C30.9949 26.9708 31.8203 26.1455 31.8203 25.1273C31.8203 24.1092 30.9949 23.2838 29.9768 23.2838C28.9587 23.2838 28.1333 24.1092 28.1333 25.1273C28.1333 26.1455 28.9587 26.9708 29.9768 26.9708Z" fill="#DEA600"/>
<path d="M19.3813 32.1045C20.3995 32.1045 21.2248 31.2792 21.2248 30.261C21.2248 29.2429 20.3995 28.4175 19.3813 28.4175C18.3632 28.4175 17.5378 29.2429 17.5378 30.261C17.5378 31.2792 18.3632 32.1045 19.3813 32.1045Z" fill="#DEA600"/>
<path d="M24.6794 32.1045C25.6976 32.1045 26.5229 31.2792 26.5229 30.261C26.5229 29.2429 25.6976 28.4175 24.6794 28.4175C23.6613 28.4175 22.8359 29.2429 22.8359 30.261C22.8359 31.2792 23.6613 32.1045 24.6794 32.1045Z" fill="#DEA600"/>
<path d="M29.9768 32.1045C30.9949 32.1045 31.8203 31.2792 31.8203 30.261C31.8203 29.2429 30.9949 28.4175 29.9768 28.4175C28.9587 28.4175 28.1333 29.2429 28.1333 30.261C28.1333 31.2792 28.9587 32.1045 29.9768 32.1045Z" fill="#DEA600"/>
<path d="M19.3813 37.2383C20.3995 37.2383 21.2248 36.4129 21.2248 35.3948C21.2248 34.3766 20.3995 33.5513 19.3813 33.5513C18.3632 33.5513 17.5378 34.3766 17.5378 35.3948C17.5378 36.4129 18.3632 37.2383 19.3813 37.2383Z" fill="#DEA600"/>
<path d="M24.6794 37.2383C25.6976 37.2383 26.5229 36.4129 26.5229 35.3948C26.5229 34.3766 25.6976 33.5513 24.6794 33.5513C23.6613 33.5513 22.8359 34.3766 22.8359 35.3948C22.8359 36.4129 23.6613 37.2383 24.6794 37.2383Z" fill="#DEA600"/>
<path d="M29.9768 37.2383C30.9949 37.2383 31.8203 36.4129 31.8203 35.3948C31.8203 34.3766 30.9949 33.5513 29.9768 33.5513C28.9587 33.5513 28.1333 34.3766 28.1333 35.3948C28.1333 36.4129 28.9587 37.2383 29.9768 37.2383Z" fill="#DEA600"/>
<path d="M35.1501 26.9708C36.1683 26.9708 36.9936 26.1455 36.9936 25.1273C36.9936 24.1092 36.1683 23.2838 35.1501 23.2838C34.132 23.2838 33.3066 24.1092 33.3066 25.1273C33.3066 26.1455 34.132 26.9708 35.1501 26.9708Z" fill="#DEA600"/>
<path d="M35.1501 32.1045C36.1683 32.1045 36.9936 31.2792 36.9936 30.261C36.9936 29.2429 36.1683 28.4175 35.1501 28.4175C34.132 28.4175 33.3066 29.2429 33.3066 30.261C33.3066 31.2792 34.132 32.1045 35.1501 32.1045Z" fill="#DEA600"/>
<path d="M35.1501 37.2383C36.1683 37.2383 36.9936 36.4129 36.9936 35.3948C36.9936 34.3766 36.1683 33.5513 35.1501 33.5513C34.132 33.5513 33.3066 34.3766 33.3066 35.3948C33.3066 36.4129 34.132 37.2383 35.1501 37.2383Z" fill="#DEA600"/>
</svg>
