<svg width="43" height="49" viewBox="0 0 43 49" fill="none" xmlns="http://www.w3.org/2000/svg">
<path fill-rule="evenodd" clip-rule="evenodd" d="M38.6875 27.5937C39.0312 29.6562 39.375 31.375 40.0625 33.4375L42.125 39.2812L40.4062 41.6875H28.375C28.375 43.4062 27.6875 45.125 26.3125 46.5C24.9375 47.875 23.2188 48.5625 21.5 48.5625C19.7812 48.5625 17.7188 47.875 16.6875 46.5C15.3125 45.125 14.625 43.4062 14.625 41.6875H2.59375L0.875 39.2812L2.9375 33.4375C3.625 30.6875 4.3125 27.9375 4.3125 25.1875V17.625C4.3125 15.2188 4.65625 12.8125 5.6875 10.75C6.71875 8.34375 8.09375 6.625 9.8125 4.90625C11.5312 3.1875 13.5938 2.15625 16 1.46875C17.7188 0.78125 19.7812 0.4375 21.5 0.4375C20.8125 1.46875 20.125 2.84375 19.4375 4.21875C18.75 4.21875 18.0625 4.21875 17.0312 4.90625C15.3125 5.25 13.5938 6.28125 12.2188 7.65625C10.8438 8.6875 9.46875 10.4062 8.78125 12.125C8.09375 13.8438 7.75 15.5625 7.75 17.625V25.1875C7.75 28.2812 7.0625 31.375 6.375 34.4688L5 38.25H38L36.625 34.4688C36.0234 32.6606 35.6831 30.5844 35.3772 28.7144L35.25 27.9375C36.625 27.9375 37.6562 27.9375 38.6875 27.5937ZM21.5 45.125C22.1875 45.125 23.2188 44.7812 23.9062 44.0938C24.5938 43.4062 24.9375 42.7188 24.9375 41.6875H18.0625C18.0625 42.7188 18.4062 43.4062 19.0938 44.0938C19.7812 44.7812 20.8125 45.125 21.5 45.125Z" fill="#97D983"/>
</svg>
