<svg width="42" height="49" viewBox="0 0 42 49" fill="none" xmlns="http://www.w3.org/2000/svg">
<path d="M39.9834 33.3447C39.1138 30.7046 38.6694 27.9431 38.6669 25.1635V18.2953C38.7301 13.9434 37.1771 9.72269 34.3081 6.44972C31.449 3.17158 27.4807 1.06382 23.1638 0.53034C20.7781 0.28284 18.3512 0.53034 16.0481 1.31065C13.745 2.04972 11.6481 3.28378 9.88125 4.93034C8.10556 6.53444 6.69026 8.49688 5.72875 10.6882C4.76246 12.8786 4.25811 15.2447 4.24719 17.6388V25.2013C4.24215 27.9695 3.79777 30.7193 2.93063 33.3482L0.875 39.4291L2.52156 41.691H14.57C14.57 43.4991 15.3091 45.266 16.5844 46.5447C17.8563 47.8166 19.6266 48.5591 21.4381 48.5591C23.2463 48.5591 25.0131 47.82 26.2884 46.5447C27.5637 45.2694 28.3062 43.4991 28.3062 41.691H40.3547L41.9978 39.4291L39.9834 33.3447ZM23.8616 44.1625C23.5453 44.4851 23.1684 44.742 22.7525 44.9184C22.3366 45.0948 21.8899 45.1872 21.4381 45.1903C20.9855 45.1872 20.5381 45.0945 20.1215 44.9175C19.705 44.7405 19.3276 44.4827 19.0112 44.1591C18.688 43.8431 18.4305 43.4663 18.2535 43.0504C18.0765 42.6345 17.9836 42.1876 17.98 41.7357H24.8516C24.8659 42.1867 24.7855 42.6357 24.6156 43.0537C24.4456 43.4717 24.1899 43.8494 23.865 44.1625H23.8616ZM4.90375 38.2844L6.17906 34.455C7.17358 31.4718 7.68759 28.3494 7.70188 25.2047V17.6388C7.70188 15.7035 8.11438 13.8128 8.89469 12.0838C9.675 10.3169 10.7853 8.75284 12.2256 7.47753C13.6659 6.1644 15.3537 5.1744 17.1619 4.60034C19.0112 3.98159 20.9431 3.77534 22.8337 3.98159C26.2988 4.43721 29.4757 6.14985 31.7609 8.79409C34.0468 11.4416 35.2757 14.8394 35.2122 18.3366V25.246C35.2122 28.3707 35.7072 31.4953 36.735 34.4963L38.0103 38.3222H4.90719V38.281L4.90375 38.2844Z" fill="#97D983"/>
</svg>
