<svg width="36" height="30" viewBox="0 0 36 30" fill="none" xmlns="http://www.w3.org/2000/svg">
<path fill-rule="evenodd" clip-rule="evenodd" d="M35.5 2.5C35.5 1.83696 35.2366 1.20107 34.7678 0.732234C34.2989 0.263393 33.663 0 33 0H3C2.33696 0 1.70107 0.263393 1.23223 0.732234C0.76339 1.20107 0.5 1.83696 0.5 2.5C0.5 3.16304 0.76339 3.79893 1.23223 4.26777C1.70107 4.73661 2.33696 5 3 5H33C33.663 5 34.2989 4.73661 34.7678 4.26777C35.2366 3.79893 35.5 3.16304 35.5 2.5Z" fill="#2DAF00"/>
<path fill-rule="evenodd" clip-rule="evenodd" d="M35.5 15C35.5 14.337 35.2366 13.7011 34.7678 13.2322C34.2989 12.7634 33.663 12.5 33 12.5H18C17.337 12.5 16.7011 12.7634 16.2322 13.2322C15.7634 13.7011 15.5 14.337 15.5 15C15.5 15.663 15.7634 16.2989 16.2322 16.7678C16.7011 17.2366 17.337 17.5 18 17.5H33C33.663 17.5 34.2989 17.2366 34.7678 16.7678C35.2366 16.2989 35.5 15.663 35.5 15Z" fill="#2DAF00"/>
<path fill-rule="evenodd" clip-rule="evenodd" d="M35.5 27.5C35.5 26.837 35.2366 26.2011 34.7678 25.7322C34.2989 25.2634 33.663 25 33 25H3C2.33696 25 1.70107 25.2634 1.23223 25.7322C0.76339 26.2011 0.5 26.837 0.5 27.5C0.5 28.163 0.76339 28.7989 1.23223 29.2678C1.70107 29.7366 2.33696 30 3 30H33C33.663 30 34.2989 29.7366 34.7678 29.2678C35.2366 28.7989 35.5 28.163 35.5 27.5Z" fill="#2DAF00"/>
</svg>
