<svg width="25" height="25" viewBox="0 0 25 25" fill="none" xmlns="http://www.w3.org/2000/svg">
<path d="M5.00002 2.70453L12.5 10.2045L20 2.72726C20.1477 2.57701 20.3249 2.45903 20.5205 2.38079C20.7161 2.30255 20.9258 2.26575 21.1364 2.27271C21.5495 2.29945 21.9388 2.47565 22.2316 2.7684C22.5244 3.06116 22.7006 3.45046 22.7273 3.86362C22.7293 4.06676 22.6901 4.2682 22.612 4.45573C22.5338 4.64325 22.4184 4.81295 22.2727 4.95453L14.75 12.5L22.2727 20.0454C22.5682 20.3318 22.7318 20.7273 22.7273 21.1363C22.7006 21.5495 22.5244 21.9388 22.2316 22.2316C21.9388 22.5243 21.5495 22.7005 21.1364 22.7273C20.9258 22.7342 20.7161 22.6974 20.5205 22.6192C20.3249 22.5409 20.1477 22.423 20 22.2727L12.5 14.7954L5.02274 22.2727C4.87508 22.423 4.69784 22.5409 4.50224 22.6192C4.30664 22.6974 4.09693 22.7342 3.88638 22.7273C3.46552 22.7053 3.06769 22.5283 2.76969 22.2303C2.47169 21.9323 2.29465 21.5345 2.27274 21.1136C2.27069 20.9105 2.30992 20.709 2.38805 20.5215C2.46619 20.334 2.5816 20.1643 2.72729 20.0227L10.25 12.5L2.70456 4.95453C2.56297 4.81104 2.45176 4.64048 2.37757 4.45304C2.30337 4.26561 2.26772 4.06514 2.27274 3.86362C2.29948 3.45046 2.47568 3.06116 2.76843 2.7684C3.06119 2.47565 3.4505 2.29945 3.86365 2.27271C4.07257 2.26279 4.28128 2.29601 4.47679 2.3703C4.6723 2.4446 4.85041 2.55837 5.00002 2.70453Z" fill="#2DAF00"/>
</svg>
