<svg width="55" height="55" viewBox="0 0 55 55" fill="none" xmlns="http://www.w3.org/2000/svg">
<path d="M27.5 0C12.32 0 0 12.32 0 27.5C0 42.68 12.32 55 27.5 55C42.68 55 55 42.68 55 27.5C55 12.32 42.68 0 27.5 0ZM27.5 8.25C32.065 8.25 35.75 11.935 35.75 16.5C35.75 21.065 32.065 24.75 27.5 24.75C22.935 24.75 19.25 21.065 19.25 16.5C19.25 11.935 22.935 8.25 27.5 8.25ZM27.5 47.3C24.2326 47.3 21.016 46.4914 18.137 44.9464C15.258 43.4013 12.8061 41.1678 11 38.445C11.0825 32.9725 22 29.975 27.5 29.975C32.9725 29.975 43.9175 32.9725 44 38.445C42.1939 41.1678 39.742 43.4013 36.863 44.9464C33.984 46.4914 30.7674 47.3 27.5 47.3Z" fill="#97D983"/>
</svg>
